<?xml version="1.0" encoding="iso-8859-1"?>
<!-- Uploaded to: SVG Repo, www.svgrepo.com, Generator: SVG Repo Mixer Tools -->
<svg height="800px" width="800px" version="1.1" id="Layer_1" xmlns="http://www.w3.org/2000/svg" xmlns:xlink="http://www.w3.org/1999/xlink" 
	 viewBox="0 0 512 512" xml:space="preserve">
<path style="fill:#D7EBFF;" d="M256,512c-2.424,0-4.847-0.528-7.098-1.582C121.37,450.56,38.957,326.669,38.957,194.783V83.479
	c0-4.843,2.098-9.44,5.761-12.614c3.652-3.169,8.521-4.604,13.293-3.913c68.065,9.712,137.609-13.489,186.184-62.06
	c6.521-6.521,17.087-6.521,23.609,0c48.577,48.565,118.142,71.745,186.184,62.06c4.783-0.696,9.641,0.745,13.293,3.913
	c3.664,3.174,5.762,7.771,5.762,12.614v111.304c0,131.886-82.413,255.777-209.946,315.636C260.847,511.473,258.424,512,256,512z"/>
<path style="fill:#B7C4CC;" d="M263.098,510.419c127.533-59.858,209.946-183.75,209.946-315.636V83.479
	c0-4.843-2.098-9.44-5.761-12.614c-3.652-3.169-8.51-4.609-13.293-3.913c-68.044,9.685-137.609-13.495-186.184-62.06
	C264.544,1.631,260.272,0,256,0v512C258.424,512,260.847,511.473,263.098,510.419z"/>
<path style="fill:#33A6CC;" d="M406.261,194.783v-43.951c0-8.521-6.413-15.674-14.891-16.598
	c-44.967-4.896-88.587-20.653-126.141-45.56c-2.794-1.853-6.01-2.78-9.228-2.78V256h142.541
	C403.516,235.97,406.261,215.461,406.261,194.783z"/>
<path style="fill:#D7EBFF;" d="M264.663,433.908C332.886,392.498,380.781,327.492,398.541,256H256v180.332
	C259,436.332,262.001,435.522,264.663,433.908z"/>
<path style="fill:#FFFFFF;" d="M256,85.894c-3.218,0-6.435,0.927-9.228,2.78c-37.554,24.908-81.174,40.663-126.141,45.56
	c-8.478,0.924-14.891,8.075-14.891,16.598v43.951c0,20.677,2.745,41.187,7.72,61.217H256V85.894z"/>
<path style="fill:#3ABBE6;" d="M247.337,433.908c2.664,1.614,5.663,2.424,8.663,2.424V256H113.459
	C131.22,327.489,179.114,392.495,247.337,433.908z"/>
</svg>